# xmcd CD database file
#
# Track frame offsets:
#	150
#	24790
#	41474
#	63291
#	80712
#	96975
#	112240
#	133334
#	148454
#	163371
#	184718
#	198769
#	221428
#
# Disc length: 3167 seconds
#
# Revision: 4
# Processed by: cddbd v1.5.2PL0 Copyright (c) Steve Scherf et al.
# Submitted via: CDex 2.17
#
DISCID=c30c5d0d
DTITLE=Emmylou Harris - Hard Bargain
DYEAR=2011
DGENRE=Country
TTITLE0=The Road
TTITLE1=Home Sweet Home
TTITLE2=My Name is Emmett Till
TTITLE3=Goodnight Old World
TTITLE4=New Orleans
TTITLE5=Big Black Dog
TTITLE6=Lonely Girl
TTITLE7=Hard Bargain
TTITLE8=Six White Cadillacs
TTITLE9=The Ship on His Arm
TTITLE10=Darlin' Kate
TTITLE11=Nobody
TTITLE12=Cross Yourself
EXTD=YEAR: 2011
EXTT0=
EXTT1=
EXTT2=
EXTT3=
EXTT4=
EXTT5=
EXTT6=
EXTT7=
EXTT8=
EXTT9=
EXTT10=
EXTT11=
EXTT12=
PLAYORDER=
